<?xml version="1.0" encoding="UTF-8" standalone="no"?>
<!-- Created with Inkscape (http://www.inkscape.org/) -->

<svg
   xmlns:dc="http://purl.org/dc/elements/1.1/"
   xmlns:cc="http://creativecommons.org/ns#"
   xmlns:rdf="http://www.w3.org/1999/02/22-rdf-syntax-ns#"
   xmlns:svg="http://www.w3.org/2000/svg"
   xmlns="http://www.w3.org/2000/svg"
   version="1.1"
   width="159.8175"
   height="87.807503"
   id="svg3876">
  <defs
     id="defs3878" />
  <metadata
     id="metadata3881">
    <rdf:RDF>
      <cc:Work
         rdf:about="">
        <dc:format>image/svg+xml</dc:format>
        <dc:type
           rdf:resource="http://purl.org/dc/dcmitype/StillImage" />
        <dc:title></dc:title>
      </cc:Work>
    </rdf:RDF>
  </metadata>
  <g
     transform="translate(-295.09125,-488.45843)"
     id="layer1">
    <g
       transform="matrix(1.25,0,0,-1.25,310.0235,534.91693)"
       id="g388">
      <g
         id="g3823">
        <path
           d="m 0,0 c 0,-2.914 -28.621,-5.275 -63.927,-5.275 -35.306,0 -63.927,2.361 -63.927,5.275 0,2.914 28.621,5.275 63.927,5.275 C -28.621,5.275 0,2.914 0,0"
           transform="translate(115.9082,-27.804203)"
           id="path354"
           style="fill:#b5b1a0;fill-opacity:1;fill-rule:nonzero;stroke:none" />
        <path
           d="m 0,0 123.77,0 c 0,0 -1.492,27.559 -36.693,27.559 0,0 -3.774,26.973 -33.924,26.973 C 24.554,54.532 22.729,26.967 22.729,26.967 22.729,26.967 3.73,21.874 0,0"
           transform="translate(-8.1234997,-17.365203)"
           id="path358"
           style="fill:#00b082;fill-opacity:1;fill-rule:nonzero;stroke:none" />
        <path
           d="m 0,0 -5.584,0 0,-5.636 3.56,0 c 0,0 0.92,2.522 2.024,5.636"
           transform="translate(-6.0995997,-11.729499)"
           id="path362"
           style="fill:#3f4340;fill-opacity:1;fill-rule:nonzero;stroke:none" />
        <path
           d="m 0,0 c 0,-6.439 -5.221,-11.659 -11.661,-11.659 -6.439,0 -11.659,5.22 -11.659,11.659 0,6.44 5.22,11.661 11.659,11.661 C -5.221,11.661 0,6.44 0,0"
           transform="translate(40.586499,-16.420403)"
           id="path366"
           style="fill:#3f4340;fill-opacity:1;fill-rule:nonzero;stroke:none" />
        <path
           d="m 0,0 c 0,-3.709 -3.007,-6.716 -6.717,-6.716 -3.709,0 -6.716,3.007 -6.716,6.716 0,3.71 3.007,6.717 6.716,6.717 C -3.007,6.717 0,3.71 0,0"
           transform="translate(35.642603,-16.420403)"
           id="path370"
           style="fill:#adadad;fill-opacity:1;fill-rule:nonzero;stroke:none" />
        <path
           d="m 0,0 c 0,-6.439 -5.22,-11.659 -11.66,-11.659 -6.439,0 -11.66,5.22 -11.66,11.659 0,6.44 5.221,11.661 11.66,11.661 C -5.22,11.661 0,6.44 0,0"
           transform="translate(83.481499,-16.420403)"
           id="path374"
           style="fill:#3f4340;fill-opacity:1;fill-rule:nonzero;stroke:none" />
        <path
           d="m 0,0 c 0,-3.709 -3.007,-6.716 -6.717,-6.716 -3.709,0 -6.716,3.007 -6.716,6.716 0,3.71 3.007,6.717 6.716,6.717 C -3.007,6.717 0,3.71 0,0"
           transform="translate(78.538603,-16.420403)"
           id="path378"
           style="fill:#adadad;fill-opacity:1;fill-rule:nonzero;stroke:none" />
        <path
           d="M 0,0 C 0,0 2.118,18.891 22.509,18.891 44.664,18.891 48.052,0 48.052,0 L 0,0 z"
           transform="translate(22.839899,9.9019007)"
           id="path382"
           style="fill:#d2edf3;fill-opacity:1;fill-rule:nonzero;stroke:none" />
        <path
           d="M 0,0 C 1.98,0 3.726,1.001 4.761,2.524 2.271,4.879 -0.905,7.032 -4.951,8.672 -5.457,7.815 -5.753,6.82 -5.753,5.753 -5.753,2.576 -3.177,0 0,0"
           transform="translate(101.855,-1.6044993)"
           id="path386"
           style="fill:#ecd631;fill-opacity:1;fill-rule:nonzero;stroke:none" />
        <path
           d="m 0,0 c 1.104,-0.994 2.56,-1.604 4.163,-1.604 3.44,0 6.229,2.789 6.229,6.229 0,1.051 -0.263,2.041 -0.724,2.909 C 6.862,6.063 3.271,3.678 0,0"
           id="path390"
           style="fill:#ed3224;fill-opacity:1;fill-rule:nonzero;stroke:none" />
      </g>
    </g>
  </g>
</svg>
