<?xml version="1.0" encoding="UTF-8" standalone="no"?>
<!-- Created with Inkscape (http://www.inkscape.org/) -->

<svg
   xmlns:dc="http://purl.org/dc/elements/1.1/"
   xmlns:cc="http://creativecommons.org/ns#"
   xmlns:rdf="http://www.w3.org/1999/02/22-rdf-syntax-ns#"
   xmlns:svg="http://www.w3.org/2000/svg"
   xmlns="http://www.w3.org/2000/svg"
   version="1.1"
   width="495.65125"
   height="167.97537"
   id="svg4280">
  <defs
     id="defs4282" />
  <metadata
     id="metadata4285">
    <rdf:RDF>
      <cc:Work
         rdf:about="">
        <dc:format>image/svg+xml</dc:format>
        <dc:type
           rdf:resource="http://purl.org/dc/dcmitype/StillImage" />
        <dc:title></dc:title>
      </cc:Work>
    </rdf:RDF>
  </metadata>
  <g
     transform="translate(-127.17438,-448.3745)"
     id="layer1">
    <g
       transform="matrix(1.25,0,0,-1.25,42.660875,696.59937)"
       id="g4211">
      <path
         d="m 0,0 c 0,-2.913 -88.764,-5.275 -198.261,-5.275 -109.496,0 -198.26,2.362 -198.26,5.275 0,2.914 88.764,5.275 198.26,5.275 C -88.764,5.275 0,2.914 0,0"
         transform="translate(464.1318,69.474597)"
         id="path676"
         style="fill:#b5b1a0;fill-opacity:1;fill-rule:nonzero;stroke:none" />
      <path
         d="m 0,0 c 0,0 -1.574,7.326 -7.011,7.326 l -182.222,0 -0.944,0 -172.775,0 c -8.102,0 -7.012,-7.326 -7.012,-7.326 l -3.149,-36.885 0,-58.371 c 0,-10.586 8.055,-10.574 8.055,-10.574 l 174.881,0 0.944,0 174.881,0 c 0,0 30.725,-3.084 30.725,10.574 l 0,30.979 L 0,0 z"
         transform="translate(444.2412,191.2539)"
         id="path680"
         style="fill:#e94f2e;fill-opacity:1;fill-rule:nonzero;stroke:none" />
      <path
         d="m 0,0 -19.068,0 0,-47.068 L 15.775,-59.057 0,0 z"
         transform="translate(439.3809,188.9199)"
         id="path684"
         style="fill:#d2edf3;fill-opacity:1;fill-rule:nonzero;stroke:none" />
      <path
         d="m 0,0 -22.108,0 c -8.013,0 -10.881,-0.354 -10.881,-6.613 l 0,-93.678 c 0,-1.115 0.214,-2.188 0.597,-3.205 l 41.467,0 c 0.383,1.017 0.598,2.09 0.598,3.205 l 0,93.678 C 9.673,-0.354 8.013,0 0,0"
         transform="translate(395.3564,188.9199)"
         id="path688"
         style="fill:#f16c56;fill-opacity:1;fill-rule:nonzero;stroke:none" />
      <path
         d="m 382.087,88.564 -14.008,0 0,96.268 14.008,0 0,-96.268 z"
         id="path690"
         style="fill:#d2edf3;fill-opacity:1;fill-rule:nonzero;stroke:none" />
      <path
         d="m 399.316,88.564 -14.008,0 0,96.268 14.008,0 0,-96.268 z"
         id="path692"
         style="fill:#d2edf3;fill-opacity:1;fill-rule:nonzero;stroke:none" />
      <path
         d="M 0,0 -263.962,0 -271.298,-31.863 0,-31.863 0,0 z"
         transform="translate(351.4106,191.2539)"
         id="path696"
         style="fill:#d2edf3;fill-opacity:1;fill-rule:nonzero;stroke:none" />
      <path
         d="m 310.74,157.203 -1.575,0 0,35.58 1.575,0 0,-35.58 z"
         id="path698"
         style="fill:#e94f2e;fill-opacity:1;fill-rule:nonzero;stroke:none" />
      <path
         d="m 272.956,157.203 -1.575,0 0,35.58 1.575,0 0,-35.58 z"
         id="path700"
         style="fill:#e94f2e;fill-opacity:1;fill-rule:nonzero;stroke:none" />
      <path
         d="m 235.172,157.203 -1.574,0 0,35.58 1.574,0 0,-35.58 z"
         id="path702"
         style="fill:#e94f2e;fill-opacity:1;fill-rule:nonzero;stroke:none" />
      <path
         d="m 197.389,157.203 -1.575,0 0,35.58 1.575,0 0,-35.58 z"
         id="path704"
         style="fill:#e94f2e;fill-opacity:1;fill-rule:nonzero;stroke:none" />
      <path
         d="m 159.605,157.203 -1.575,0 0,35.58 1.575,0 0,-35.58 z"
         id="path706"
         style="fill:#e94f2e;fill-opacity:1;fill-rule:nonzero;stroke:none" />
      <path
         d="m 121.822,157.203 -1.575,0 0,35.58 1.575,0 0,-35.58 z"
         id="path708"
         style="fill:#e94f2e;fill-opacity:1;fill-rule:nonzero;stroke:none" />
      <path
         d="m 0,0 c 0,-11.586 9.392,-20.977 20.979,-20.977 11.586,0 20.979,9.391 20.979,20.977 0,11.588 -9.393,20.979 -20.979,20.979 C 9.392,20.979 0,11.588 0,0"
         transform="translate(88.566399,90.451197)"
         id="path712"
         style="fill:#3f4340;fill-opacity:1;fill-rule:nonzero;stroke:none" />
      <path
         d="m 0,0 c 0,-6.674 5.409,-12.084 12.084,-12.084 6.671,0 12.083,5.41 12.083,12.084 0,6.674 -5.412,12.084 -12.083,12.084 C 5.409,12.084 0,6.674 0,0"
         transform="translate(97.461903,90.451197)"
         id="path716"
         style="fill:#adadad;fill-opacity:1;fill-rule:nonzero;stroke:none" />
      <path
         d="m 0,0 c 0,-11.586 9.392,-20.977 20.979,-20.977 11.586,0 20.979,9.391 20.979,20.977 0,11.588 -9.393,20.979 -20.979,20.979 C 9.392,20.979 0,11.588 0,0"
         transform="translate(135.7959,90.451197)"
         id="path720"
         style="fill:#3f4340;fill-opacity:1;fill-rule:nonzero;stroke:none" />
      <path
         d="m 0,0 c 0,-6.674 5.409,-12.084 12.084,-12.084 6.671,0 12.083,5.41 12.083,12.084 0,6.674 -5.412,12.084 -12.083,12.084 C 5.409,12.084 0,6.674 0,0"
         transform="translate(144.6914,90.451197)"
         id="path724"
         style="fill:#adadad;fill-opacity:1;fill-rule:nonzero;stroke:none" />
      <path
         d="m 0,0 c 0,-11.586 9.392,-20.977 20.979,-20.977 11.586,0 20.979,9.391 20.979,20.977 0,11.588 -9.393,20.979 -20.979,20.979 C 9.392,20.979 0,11.588 0,0"
         transform="translate(312.4341,90.451197)"
         id="path728"
         style="fill:#3f4340;fill-opacity:1;fill-rule:nonzero;stroke:none" />
      <path
         d="m 0,0 c 0,-6.674 5.409,-12.084 12.084,-12.084 6.671,0 12.083,5.41 12.083,12.084 0,6.674 -5.412,12.084 -12.083,12.084 C 5.409,12.084 0,6.674 0,0"
         transform="translate(321.3296,90.451197)"
         id="path732"
         style="fill:#adadad;fill-opacity:1;fill-rule:nonzero;stroke:none" />
      <path
         d="m 0,0 0,8.035 -18.892,0 C -21.726,6.504 -30.725,-10.574 -30.725,-10.574 -30.725,-10.574 0,-13.658 0,0"
         transform="translate(460.6143,95.997997)"
         id="path736"
         style="fill:#adadad;fill-opacity:1;fill-rule:nonzero;stroke:none" />
      <path
         d="m 0,0 0,-4.844 c 0,-11.371 8.055,-10.574 8.055,-10.574 l 6.429,0 L 11.335,0 0,0 z"
         transform="translate(71.1284,100.8418)"
         id="path740"
         style="fill:#adadad;fill-opacity:1;fill-rule:nonzero;stroke:none" />
      <path
         d="m 239.108,90.453 -57.935,0 0,23.928 57.935,0 0,-23.928 z"
         id="path742"
         style="fill:#f16c56;fill-opacity:1;fill-rule:nonzero;stroke:none" />
      <path
         d="m 221.791,94.23 -23.3,0 0,2.834 23.3,0 0,-2.834 z"
         id="path744"
         style="fill:#e94f2e;fill-opacity:1;fill-rule:nonzero;stroke:none" />
      <path
         d="m 302.396,90.453 -57.934,0 0,23.928 57.934,0 0,-23.928 z"
         id="path746"
         style="fill:#f16c56;fill-opacity:1;fill-rule:nonzero;stroke:none" />
      <path
         d="m 285.079,94.23 -23.3,0 0,2.834 23.3,0 0,-2.834 z"
         id="path748"
         style="fill:#e94f2e;fill-opacity:1;fill-rule:nonzero;stroke:none" />
      <path
         d="m 351.411,148.703 -273.041,0 0,3.777 273.041,0 0,-3.777 z"
         id="path750"
         style="fill:#d23027;fill-opacity:1;fill-rule:nonzero;stroke:none" />
      <path
         d="m 351.411,142.09 -273.041,0 0,3.779 273.041,0 0,-3.779 z"
         id="path752"
         style="fill:#d23027;fill-opacity:1;fill-rule:nonzero;stroke:none" />
      <path
         d="m 351.411,135.479 -273.041,0 0,3.777 273.041,0 0,-3.777 z"
         id="path754"
         style="fill:#d23027;fill-opacity:1;fill-rule:nonzero;stroke:none" />
    </g>
  </g>
</svg>
