<?xml version="1.0" encoding="UTF-8" standalone="no"?>
<!-- Created with Inkscape (http://www.inkscape.org/) -->

<svg
   xmlns:dc="http://purl.org/dc/elements/1.1/"
   xmlns:cc="http://creativecommons.org/ns#"
   xmlns:rdf="http://www.w3.org/1999/02/22-rdf-syntax-ns#"
   xmlns:svg="http://www.w3.org/2000/svg"
   xmlns="http://www.w3.org/2000/svg"
   version="1.1"
   width="137.89171"
   height="82.685631"
   id="svg3999">
  <defs
     id="defs4001" />
  <metadata
     id="metadata4004">
    <rdf:RDF>
      <cc:Work
         rdf:about="">
        <dc:format>image/svg+xml</dc:format>
        <dc:type
           rdf:resource="http://purl.org/dc/dcmitype/StillImage" />
        <dc:title></dc:title>
      </cc:Work>
    </rdf:RDF>
  </metadata>
  <g
     transform="translate(-306.05414,-491.01936)"
     id="layer1">
    <g
       transform="matrix(1.25,0,0,-1.25,415.12952,552.88149)"
       id="g3962">
      <path
         d="m 0,0 c 0,-2.914 -24.694,-5.275 -55.156,-5.275 -30.462,0 -55.157,2.361 -55.157,5.275 0,2.914 24.695,5.275 55.157,5.275 C -24.694,5.275 0,2.914 0,0"
         transform="translate(23.052699,-11.383803)"
         id="path394"
         style="fill:#b5b1a0;fill-opacity:1;fill-rule:nonzero;stroke:none" />
      <path
         d="m 0,0 -13.348,0 4.202,-5.636 8.859,0 c 0,0 -1.929,2.522 0.287,5.636"
         transform="translate(-73.911597,4.6909007)"
         id="path398"
         style="fill:#3f4340;fill-opacity:1;fill-rule:nonzero;stroke:none" />
      <path
         d="m 0,0 -37.925,0 c 0,0 -10.093,3.014 -7.263,17.753 0,0 8.672,32.681 45.188,32.681 9.913,0 22.025,-1.548 37.292,-12.798 C 56.944,23.155 71.821,5.635 46.781,0 L 0,0 z"
         transform="translate(-36.911197,-0.9442993)"
         id="path402"
         style="fill:#f0552e;fill-opacity:1;fill-rule:nonzero;stroke:none" />
      <path
         d="M 0,0 C 0,0 10.137,21.359 31.7,21.359 L 31.7,0 0,0 z"
         transform="translate(-70.383797,22.239701)"
         id="path406"
         style="fill:#b5e2f0;fill-opacity:1;fill-rule:nonzero;stroke:none" />
      <path
         d="M 0,0 C 0,0 -13.363,21.359 -38.272,21.359 L -38.272,0 0,0 z"
         transform="translate(4.2500027,22.239701)"
         id="path410"
         style="fill:#b5e2f0;fill-opacity:1;fill-rule:nonzero;stroke:none" />
      <path
         d="m 0,0 c -1.272,-1.051 -2.084,-2.641 -2.084,-4.42 0,-3.163 2.564,-5.728 5.729,-5.728 0.986,0 1.915,0.25 2.725,0.689 C 5.226,-6.479 2.98,-3.274 0,0"
         transform="translate(15.835899,23.232397)"
         id="path414"
         style="fill:#ecd631;fill-opacity:1;fill-rule:nonzero;stroke:none" />
      <path
         d="m 0,0 c 0.62,-0.27 1.301,-0.423 2.02,-0.423 2.802,0 5.074,2.272 5.074,5.074 0,2.489 -1.796,4.551 -4.16,4.982 C 1.125,5.901 0.434,3.301 0.434,3.301 0.208,2.125 0.073,1.031 0,0"
         transform="translate(-82.533197,13.507301)"
         id="path418"
         style="fill:#ed9c21;fill-opacity:1;fill-rule:nonzero;stroke:none" />
      <g
         transform="translate(-47.063997,-3.3e-6)"
         id="g420">
        <path
           d="m 0,0 c 0,-6.439 -5.22,-11.659 -11.66,-11.659 -6.439,0 -11.66,5.22 -11.66,11.659 0,6.44 5.221,11.661 11.66,11.661 C -5.22,11.661 0,6.44 0,0"
           id="path422"
           style="fill:#3f4340;fill-opacity:1;fill-rule:nonzero;stroke:none" />
      </g>
      <path
         d="m 0,0 c 0,-3.709 -3.007,-6.716 -6.717,-6.716 -3.709,0 -6.716,3.007 -6.716,6.716 0,3.71 3.007,6.717 6.716,6.717 C -3.007,6.717 0,3.71 0,0"
         transform="translate(-52.006901,-3.3e-6)"
         id="path426"
         style="fill:#adadad;fill-opacity:1;fill-rule:nonzero;stroke:none" />
      <path
         d="m 0,0 c 0,-6.439 -5.22,-11.659 -11.66,-11.659 -6.439,0 -11.66,5.22 -11.66,11.659 0,6.44 5.221,11.661 11.66,11.661 C -5.22,11.661 0,6.44 0,0"
         transform="translate(4.9428987,-3.3e-6)"
         id="path430"
         style="fill:#3f4340;fill-opacity:1;fill-rule:nonzero;stroke:none" />
      <path
         d="m 0,0 c 0,-3.709 -3.007,-6.716 -6.717,-6.716 -3.709,0 -6.716,3.007 -6.716,6.716 0,3.71 3.007,6.717 6.716,6.717 C -3.007,6.717 0,3.71 0,0"
         id="path434"
         style="fill:#adadad;fill-opacity:1;fill-rule:nonzero;stroke:none" />
    </g>
  </g>
</svg>
