<?xml version="1.0" encoding="UTF-8" standalone="no"?>
<!-- Created with Inkscape (http://www.inkscape.org/) -->

<svg
   xmlns:dc="http://purl.org/dc/elements/1.1/"
   xmlns:cc="http://creativecommons.org/ns#"
   xmlns:rdf="http://www.w3.org/1999/02/22-rdf-syntax-ns#"
   xmlns:svg="http://www.w3.org/2000/svg"
   xmlns="http://www.w3.org/2000/svg"
   version="1.1"
   width="183.868"
   height="90.441002"
   id="svg4140">
  <defs
     id="defs4142" />
  <metadata
     id="metadata4145">
    <rdf:RDF>
      <cc:Work
         rdf:about="">
        <dc:format>image/svg+xml</dc:format>
        <dc:type
           rdf:resource="http://purl.org/dc/dcmitype/StillImage" />
        <dc:title></dc:title>
      </cc:Work>
    </rdf:RDF>
  </metadata>
  <g
     transform="translate(-530.92314,-581.4274)"
     id="layer1">
    <g
       transform="matrix(1.25,0,0,-1.25,679.84752,651.04427)"
       id="g4103">
      <path
         d="m 0,0 c 0,-2.914 -29.965,-5.275 -66.93,-5.275 -36.964,0 -66.929,2.361 -66.929,5.275 0,2.914 29.965,5.275 66.929,5.275 C -29.965,5.275 0,2.914 0,0"
         transform="translate(21.337803,-11.384303)"
         id="path438"
         style="fill:#b5b1a0;fill-opacity:1;fill-rule:nonzero;stroke:none" />
      <path
         d="m 0,0 c 0,0 -16.596,25.112 -22.625,25.112 l -58.925,0 c -4.537,0 -8.497,-1.614 -18.918,-25.546 L 0,0 z"
         transform="translate(-3.1231013,30.581497)"
         id="path442"
         style="fill:#76b4e2;fill-opacity:1;fill-rule:nonzero;stroke:none" />
      <path
         d="m 0,0 -13.348,0 4.202,-5.636 8.86,0 c 0,0 -1.929,2.522 0.286,5.636"
         transform="translate(-105.7915,10.297801)"
         id="path446"
         style="fill:#3f4340;fill-opacity:1;fill-rule:nonzero;stroke:none" />
      <path
         d="m 0,0 c 0,-4.943 4.007,-8.951 8.951,-8.951 l 119.838,0 c 4.943,0 8.951,4.008 8.951,8.951 l 0,12.681 c 0,4.943 -4.008,8.949 -8.951,8.949 l -119.838,0 C 4.007,21.63 0,17.624 0,12.681 L 0,0 z"
         transform="translate(-109.7852,8.9512007)"
         id="path450"
         style="fill:#76b4e2;fill-opacity:1;fill-rule:nonzero;stroke:none" />
      <path
         d="m 0,0 c 0,0 -15.385,21.917 -19.576,21.917 l -51.129,0 c -4.021,0 -8.003,-1.411 -15.99,-22.295 L 0,0 z"
         transform="translate(-11.128901,30.793401)"
         id="path454"
         style="fill:#d2edf3;fill-opacity:1;fill-rule:nonzero;stroke:none" />
      <path
         d="m 406.043,636.199 4.113,0 0,24.094 -4.113,0 0,-24.094 z"
         transform="translate(-462.7559,-605.8423)"
         id="path456"
         style="fill:#76b4e2;fill-opacity:1;fill-rule:nonzero;stroke:none" />
      <path
         d="m 0,0 -0.779,0 c -0.711,-1.121 -1.129,-2.447 -1.129,-3.873 0,-4 3.242,-7.242 7.24,-7.242 1.32,0 2.555,0.359 3.619,0.976 l 0,1.189 C 8.951,-4.007 4.943,0 0,0"
         transform="translate(19.003899,30.581497)"
         id="path460"
         style="fill:#ecd631;fill-opacity:1;fill-rule:nonzero;stroke:none" />
      <path
         d="m 0,0 c -0.197,0 -0.386,-0.029 -0.575,-0.058 -0.331,-0.934 -0.521,-1.936 -0.521,-2.984 l 0,-4.329 c 0.349,-0.106 0.712,-0.18 1.096,-0.18 2.085,0 3.775,1.69 3.775,3.776 C 3.775,-1.69 2.085,0 0,0"
         transform="translate(-108.6895,24.673297)"
         id="path464"
         style="fill:#ed3224;fill-opacity:1;fill-rule:nonzero;stroke:none" />
      <path
         d="m 0,0 c 0,-6.439 -5.22,-11.66 -11.66,-11.66 -6.439,0 -11.66,5.221 -11.66,11.66 0,6.44 5.221,11.661 11.66,11.661 C -5.22,11.661 0,6.44 0,0"
         transform="translate(-72.252997,6.9999996e-7)"
         id="path468"
         style="fill:#3f4340;fill-opacity:1;fill-rule:nonzero;stroke:none" />
      <path
         d="m 0,0 c 0,-3.709 -3.007,-6.716 -6.717,-6.716 -3.709,0 -6.716,3.007 -6.716,6.716 0,3.71 3.007,6.717 6.716,6.717 C -3.007,6.717 0,3.71 0,0"
         transform="translate(-77.195797,6.9999996e-7)"
         id="path472"
         style="fill:#adadad;fill-opacity:1;fill-rule:nonzero;stroke:none" />
      <path
         d="m 0,0 c 0,-6.439 -5.219,-11.66 -11.66,-11.66 -6.44,0 -11.66,5.221 -11.66,11.66 0,6.44 5.22,11.661 11.66,11.661 C -5.219,11.661 0,6.44 0,0"
         transform="translate(4.9432987,6.9999996e-7)"
         id="path476"
         style="fill:#3f4340;fill-opacity:1;fill-rule:nonzero;stroke:none" />
      <path
         d="m 0,0 c 0,-3.709 -3.006,-6.716 -6.717,-6.716 -3.709,0 -6.715,3.007 -6.715,6.716 0,3.71 3.006,6.717 6.715,6.717 C -3.006,6.717 0,3.71 0,0"
         id="path480"
         style="fill:#adadad;fill-opacity:1;fill-rule:nonzero;stroke:none" />
    </g>
  </g>
</svg>
