<?xml version="1.0" ?><svg height="512px" version="1.1" viewBox="0 0 512 512" width="512px" xmlns="http://www.w3.org/2000/svg" xmlns:sketch="http://www.bohemiancoding.com/sketch/ns" xmlns:xlink="http://www.w3.org/1999/xlink"><title/><desc/><defs/><g fill="none" fill-rule="evenodd" id="Page-1" stroke="none" stroke-width="1"><path d="M76.6290387,511.391167 C66.7219987,510.296467 55.5560531,506.73869 45.7584831,501.648332 C22.7150365,489.497156 5.58297282,465.851624 1.03996553,439.797751 C0.0547350277,434.269513 0,426.82555 0,254.793358 L0,75.5361421 L1.25890564,69.9531693 C9.14074962,34.3206662 34.3188623,9.14255351 69.9513654,1.26070953 L75.5343382,0.00180389396 L255.612579,0.00180389396 L435.69082,0.00180389396 L441.273793,1.26070953 C476.906296,9.14255351 502.084409,34.3206662 509.966253,69.9531693 L511.225158,75.5361421 L511.225158,254.793358 C511.225158,426.82555 511.170423,434.269513 510.185193,439.797751 C508.816817,447.789065 506.080066,455.835114 501.920204,464.154839 C488.948002,490.263447 462.894129,508.326006 433.665624,511.500637 C426.987951,512.212193 83.087772,512.157458 76.6290387,511.391167 L76.6290387,511.391167 Z M272.197293,420.366816 C291.026142,418.01321 306.24248,413.470203 322.936663,405.314684 C339.357172,397.268635 349.866297,389.660466 363.768994,375.812504 C376.79593,362.730832 384.020954,352.823792 391.683858,337.443249 C402.357188,315.987119 408.432776,290.480596 409.472742,262.401527 C409.855887,252.822897 409.582212,250.688231 407.392811,247.951479 C403.232949,242.642182 394.092199,243.517942 390.972303,249.48406 C389.987072,251.454521 389.713397,253.151307 389.384987,260.814211 C388.837637,272.582242 388.016611,280.190411 386.37456,289.276425 C379.915827,324.908928 362.838498,353.371143 335.580455,373.787308 C312.865418,390.864636 289.384091,399.184361 258.623006,400.990617 C248.22335,401.592702 246.417095,401.975847 244.063488,403.782103 C239.684686,407.23041 239.465746,415.331194 243.680343,419.107911 C246.252889,421.461517 248.059145,421.789927 256.980955,421.516252 C261.633432,421.352047 268.475311,420.804697 272.197293,420.366816 L272.197293,420.366816 Z M147.073019,414.455433 C148.988745,413.798613 151.944437,412.266032 153.641223,411.171332 C164.040878,404.274718 192.995708,367.219105 202.464867,348.718665 C207.883635,338.154805 209.689891,330.327696 207.993105,324.525783 C206.241584,318.28599 203.340628,315.001888 190.368426,304.547498 C185.168599,300.332901 180.297181,296.008834 179.530891,294.859398 C177.56043,292.013177 175.973114,286.430204 175.973114,282.489282 C176.027849,273.348532 181.939232,256.763819 189.711606,244.010557 C195.732459,234.103517 206.515259,221.404991 217.18859,211.662156 C229.722911,200.1678 240.779387,192.340691 253.258973,186.155633 C269.296336,178.164319 279.093906,176.139123 286.264195,179.47796 C288.070451,180.298985 289.986177,181.393686 290.588262,181.886301 C291.135612,182.378916 295.350209,187.524009 299.947952,193.216452 C308.815026,204.382397 310.840222,206.188653 316.91581,208.268584 C324.633449,210.895866 332.515293,210.18431 340.451872,206.133918 C346.472725,203.014022 359.609132,194.858502 368.093061,188.947119 C379.259007,181.12001 403.123479,161.634341 406.352845,157.748154 C412.045288,150.74207 413.030519,141.765526 409.199067,131.858486 C405.148675,121.404095 389.384987,101.808955 378.383246,93.4344961 C368.421471,85.8810623 361.360653,82.9801058 352.055698,82.5422256 C344.392794,82.1590804 341.218162,82.8159008 331.420593,86.8662928 C254.572614,118.557874 193.214648,165.848938 144.500473,230.819416 C119.048685,264.755133 99.6724854,299.949756 86.4266087,336.458019 C78.7089698,357.749945 78.3258246,367.000164 84.6750878,377.892435 C87.4118392,382.490177 99.0704001,393.875063 107.554329,400.224326 C121.675967,410.733452 128.189435,414.619638 133.389262,415.714339 C136.947039,416.480629 143.132097,415.878544 147.073019,414.455433 L147.073019,414.455433 Z M275.97401,380.683921 C309.198171,375.812504 334.923634,360.377226 351.782023,335.308583 C361.251183,321.186946 367.162566,304.602233 369.187762,286.813349 C369.899317,280.299881 369.899317,268.42238 369.133027,266.451919 C368.421471,264.590928 366.1226,262.073116 364.152139,261.033151 C362.017473,259.93845 357.474466,260.04792 354.956654,261.361561 C350.742057,263.496227 349.483152,266.889799 349.483152,276.085283 C349.483152,290.261656 345.815905,305.204318 339.466642,316.808144 C332.241618,330.054021 321.732493,341.001026 308.924496,348.609195 C297.922756,355.177398 281.666452,360.048816 266.83326,361.252987 C261.469227,361.690867 258.513536,362.785567 256.48834,365.139173 C253.368443,368.69695 253.040033,373.513633 255.667314,377.50929 C258.513536,381.942827 262.892338,382.654382 275.97401,380.683921 L275.97401,380.683921 Z M287.63257,339.358975 C298.415371,337.060104 306.68036,332.954977 313.741179,326.332039 C322.827193,317.73864 327.808081,307.338984 329.997482,292.396322 C331.475328,282.653487 330.873242,278.822035 327.424936,275.647403 C324.195569,272.691712 318.229451,272.582242 314.616939,275.373728 C311.989658,277.344189 311.168632,279.42412 310.566547,285.061828 C309.854992,292.560527 308.541351,297.815089 306.297215,302.686507 C301.480532,313.031427 292.996603,318.39546 278.656026,320.146981 C271.923617,320.968006 269.898421,321.734297 267.70902,324.306843 C263.713363,329.06879 265.245944,336.786429 270.774182,339.632651 C272.854113,340.672616 273.729873,340.782086 278.327616,340.508411 C281.173837,340.344206 285.388434,339.851591 287.63257,339.358975 L287.63257,339.358975 Z" fill="#4A4A4A" id="viber" transform="translate(255.612579, 256.001804) scale(1, -1) translate(-255.612579, -256.001804) "/></g></svg>