<?xml version="1.0" encoding="UTF-8" standalone="no"?>
<svg
   xmlns:dc="http://purl.org/dc/elements/1.1/"
   xmlns:cc="http://creativecommons.org/ns#"
   xmlns:rdf="http://www.w3.org/1999/02/22-rdf-syntax-ns#"
   xmlns:svg="http://www.w3.org/2000/svg"
   xmlns="http://www.w3.org/2000/svg"
   xmlns:sodipodi="http://sodipodi.sourceforge.net/DTD/sodipodi-0.dtd"
   xmlns:inkscape="http://www.inkscape.org/namespaces/inkscape"
   enable-background="new 0 0 40 40"
   height="40px"
   id="Layer_1"
   version="1.1"
   viewBox="0 0 40 40"
   width="40px"
   xml:space="preserve"
   inkscape:version="0.48.4 r9939"
   sodipodi:docname="1450052574_phone.svg"><metadata
     id="metadata3059"><rdf:RDF><cc:Work
         rdf:about=""><dc:format>image/svg+xml</dc:format><dc:type
           rdf:resource="http://purl.org/dc/dcmitype/StillImage" /></cc:Work></rdf:RDF></metadata><defs
     id="defs3057" /><sodipodi:namedview
     pagecolor="#ffffff"
     bordercolor="#666666"
     borderopacity="1"
     objecttolerance="10"
     gridtolerance="10"
     guidetolerance="10"
     inkscape:pageopacity="0"
     inkscape:pageshadow="2"
     inkscape:window-width="1855"
     inkscape:window-height="1056"
     id="namedview3055"
     showgrid="false"
     inkscape:zoom="22.725"
     inkscape:cx="12.211221"
     inkscape:cy="20"
     inkscape:window-x="1431"
     inkscape:window-y="24"
     inkscape:window-maximized="1"
     inkscape:current-layer="Layer_1" /><g
     id="g3043"><g
       id="g3045"><g
         id="g3047"><g
           id="g3049"><path
             d="M20,2c9.925,0,18,8.075,18,18s-8.075,18-18,18c-9.925,0-18-8.075-18-18S10.075,2,20,2 M20,0      C8.955,0,0,8.954,0,20c0,11.047,8.955,20,20,20c11.047,0,20-8.953,20-20C40,8.954,31.047,0,20,0L20,0z"
             fill="#959595"
             id="path3051"
             style="fill:#000000;fill-opacity:1" /></g></g></g><path
       clip-rule="evenodd"
       d="M14.371,9.793c1.207-0.228,1.998,1.133,2.6,2.072   c0.586,0.912,1.307,1.982,1.016,3.169c-0.162,0.666-0.764,1.029-1.219,1.422c-0.449,0.388-1.133,0.744-1.299,1.34   c-0.271,0.967,0.322,1.982,0.689,2.56c0.834,1.306,1.842,2.483,3.129,3.534c0.623,0.51,1.488,1.191,2.355,1.016   c1.295-0.262,1.637-1.859,3.047-2.072c1.342-0.203,2.25,0.77,3.008,1.422c0.73,0.631,1.908,1.439,1.828,2.52   c-0.047,0.621-0.545,1.006-0.977,1.381c-0.439,0.383-0.824,0.813-1.258,1.096c-1.051,0.686-2.34,1.022-3.82,0.976   c-1.451-0.045-2.607-0.538-3.656-1.097c-2.051-1.094-3.672-2.633-5.199-4.348c-1.502-1.686-2.889-3.682-3.656-5.889   c-0.957-2.756-0.451-5.587,1.098-7.353c0.262-0.3,0.676-0.613,1.055-0.935C13.49,10.284,13.84,9.893,14.371,9.793z"
       fill="#959595"
       fill-rule="evenodd"
       id="path3053"
       style="fill:#000000;fill-opacity:1" /></g></svg>